<?xml version="1.0" encoding="utf-8"?>
<!-- Generator: Adobe Illustrator 24.0.1, SVG Export Plug-In . SVG Version: 6.00 Build 0)  -->
<svg version="1.1" xmlns="http://www.w3.org/2000/svg" xmlns:xlink="http://www.w3.org/1999/xlink" x="0px" y="0px"
	 viewBox="0 0 509.09 192.65" style="enable-background:new 0 0 509.09 192.65;" xml:space="preserve">
<style type="text/css">
	.st0{display:none;}
	.st1{fill:#FFFFFF;}
</style>
<g id="Layer_1">
	<path d="M354.72,150.49h-1.6l-5.3,4.07v24.94h41.08c0,0,0.3-27.41,0.83-38.64s1.63-27.01,1.63-27.01l2.07-19.14l2.37-15.88
		c0,0,3.3-18.6,4.7-22.31c0.97-3.34,4.86-15.67,7.03-19.9s6.16-11.77,9.69-14.46c3.53-2.69,4.01-2.59,4.01-2.59h5.43
		c0,0,5.2,2.15,8.78,8.24s6.92,12.98,7.66,15.39c0.74,2.41,2.34,6.33,3.36,10.64c1.28,4.24,3.16,12.04,3.16,12.04l2.59,13.3
		l1.58,10.91l1.22,9.17l1.01,10.03l0.83,10.01l0.95,12.76l0.7,16.48l0.36,15.1v12.08v3.53v0.35l-433.87-0.1L35.97,68.03l0.02-50.97
		l3.79,2.31H65.5l3.91-2.39v51.06L80.42,179.5h6.37v-44.25h5.81V88.07h23.94v47.19h6.3V58.07L136.23,58c0,0,3.44-0.45,6.55,3.42
		s3.94,4.1,4.25,4.19c0.31,0.09,1.3,0.4,4.22,0.4s12.33,0.06,12.33,0.06V179.5h2.79V77.94L180.39,78c0,0,3.4,0.06,6.09,3.57
		s3.29,4.01,4.5,4.19s5.93,0.22,7.27,0.25c1.34,0.03,8.85,0,8.85,0v93.49h2.86V98.1L224.34,98c0,0,2.95-0.37,6.42,4.6
		c1.75,1.99,1.69,3.16,6.38,3.42c4.69,0.25,13.6,0,13.6,0v34.9h23.44v-1.83l2.68,0.03v1.9l6.85,0.04l2.74-2.65v-5.54h2.68v5.73
		l2.54,2.32h6.96v-1.72l2.77-0.06v1.78l43.68,0.05L354.72,150.49z"/>
</g>
<g id="Layer_2" class="st0">
	
		<image style="display:inline;overflow:visible;" width="990" height="1550" xlink:href="../../../../Screen Shot 2019-11-29 at 00.51.32.png"  transform="matrix(0.2134 0 0 0.2134 297.7809 -317.728)">
	</image>
	
		<image style="display:inline;overflow:visible;" width="350" height="300" xlink:href="../../../../../Downloads/yokohama_minatomirai1.jpg"  transform="matrix(1 0 0 1 -251.5388 -123.5429)">
	</image>
	
		<image style="display:inline;overflow:visible;" width="350" height="300" xlink:href="../../../../../Downloads/yokohama_minatomirai2.jpg"  transform="matrix(1 0 0 1 58.4609 -123.5429)">
	</image>
</g>
<g id="Layer_3">
	<g>
		
			<rect x="-25.43" y="123.47" transform="matrix(0.0976 -0.9952 0.9952 0.0976 -95.6043 142.0064)" class="st1" width="111.87" height="0.5"/>
		<polygon class="st1" points="36.24,60.28 35.74,60.28 35.74,16.65 39.99,19.15 39.74,19.58 36.24,17.52 		"/>
		<rect x="39.86" y="19.12" class="st1" width="12.81" height="0.5"/>
		<rect x="39.61" y="19.02" class="st1" width="0.5" height="41.26"/>
		<rect x="39.86" y="23.34" class="st1" width="12.81" height="0.5"/>
		<rect x="44.37" y="28.42" class="st1" width="8.31" height="0.5"/>
		<rect x="44.37" y="31.03" class="st1" width="8.31" height="0.5"/>
		<rect x="44.37" y="33.63" class="st1" width="8.31" height="0.5"/>
		<rect x="44.37" y="72.78" class="st1" width="8.31" height="0.5"/>
		<rect x="44.06" y="75.94" class="st1" width="8.62" height="0.5"/>
		<rect x="43.74" y="79.1" class="st1" width="8.93" height="0.5"/>
		<rect x="43.43" y="82.26" class="st1" width="9.24" height="0.5"/>
		<rect x="43.12" y="85.42" class="st1" width="9.55" height="0.5"/>
		<rect x="42.81" y="88.58" class="st1" width="9.87" height="0.5"/>
		<rect x="42.45" y="91.73" class="st1" width="10.23" height="0.5"/>
		<rect x="40.78" y="107.57" class="st1" width="11.9" height="0.5"/>
		<rect x="40.47" y="110.72" class="st1" width="12.21" height="0.5"/>
		<rect x="40.16" y="113.88" class="st1" width="12.52" height="0.5"/>
		<rect x="39.85" y="117.04" class="st1" width="12.83" height="0.5"/>
		<rect x="39.54" y="120.2" class="st1" width="13.15" height="0.5"/>
		<rect x="39.23" y="123.36" class="st1" width="13.46" height="0.5"/>
		<rect x="38.87" y="126.52" class="st1" width="13.82" height="0.5"/>
		<polygon class="st1" points="52.68,99.4 36.52,99.4 39.62,68.03 40.11,68.08 37.08,98.9 52.68,98.9 		"/>
		<polygon class="st1" points="29.14,179.41 28.64,179.36 36.05,104.16 52.68,104.16 52.68,104.66 36.51,104.66 		"/>
		<polygon class="st1" points="52.68,68.31 35.74,68.31 35.74,60.03 52.68,60.03 52.68,60.53 36.24,60.53 36.24,67.81 52.68,67.81 
					"/>
		
			<rect x="74.62" y="67.79" transform="matrix(0.9952 -0.0981 0.0981 0.9952 -11.7737 7.9394)" class="st1" width="0.5" height="111.87"/>
		<polygon class="st1" points="69.63,60.28 69.13,60.28 69.13,17.52 65.63,19.58 65.38,19.15 69.63,16.65 		"/>
		<rect x="52.69" y="19.12" class="st1" width="12.81" height="0.5"/>
		<rect x="65.25" y="19.02" class="st1" width="0.5" height="41.26"/>
		<rect x="52.69" y="23.34" class="st1" width="12.81" height="0.5"/>
		<rect x="52.69" y="28.42" class="st1" width="8.31" height="0.5"/>
		<rect x="52.69" y="31.03" class="st1" width="8.31" height="0.5"/>
		<rect x="52.69" y="33.63" class="st1" width="8.31" height="0.5"/>
		<rect x="52.69" y="72.78" class="st1" width="8.31" height="0.5"/>
		<rect x="52.69" y="75.94" class="st1" width="8.62" height="0.5"/>
		<rect x="52.69" y="79.1" class="st1" width="8.93" height="0.5"/>
		<rect x="52.69" y="82.26" class="st1" width="9.24" height="0.5"/>
		<rect x="52.69" y="85.42" class="st1" width="9.55" height="0.5"/>
		<rect x="52.69" y="88.58" class="st1" width="9.87" height="0.5"/>
		<rect x="52.69" y="91.73" class="st1" width="10.23" height="0.5"/>
		<rect x="52.68" y="107.57" class="st1" width="11.9" height="0.5"/>
		<rect x="52.68" y="110.72" class="st1" width="12.21" height="0.5"/>
		<rect x="52.68" y="113.88" class="st1" width="12.52" height="0.5"/>
		<rect x="52.68" y="117.04" class="st1" width="12.83" height="0.5"/>
		<rect x="52.68" y="120.2" class="st1" width="13.15" height="0.5"/>
		<rect x="52.68" y="123.36" class="st1" width="13.46" height="0.5"/>
		<rect x="52.68" y="126.52" class="st1" width="13.82" height="0.5"/>
		<polygon class="st1" points="68.84,99.4 52.69,99.4 52.69,98.9 68.29,98.9 65.25,68.08 65.75,68.03 		"/>
		<polygon class="st1" points="76.23,179.41 68.86,104.66 52.69,104.66 52.69,104.16 69.31,104.16 69.34,104.39 76.72,179.36 		"/>
		<polygon class="st1" points="69.63,68.31 52.69,68.31 52.69,67.81 69.13,67.81 69.13,60.53 52.69,60.53 52.69,60.03 69.63,60.03 
					"/>
		<path class="st1" d="M311.8,83.61l-5.42-20.22l0.24-0.06c4.29-1.15,8.72-1.73,13.16-1.73h0.25v20.94h-0.25
			c-2.61,0-5.22,0.34-7.74,1.02L311.8,83.61z M306.99,63.74L312.15,83c2.41-0.62,4.89-0.95,7.38-0.97V62.09
			C315.3,62.11,311.09,62.67,306.99,63.74z"/>
		<path class="st1" d="M298.45,91.47l-14.81-14.81l0.18-0.18c3.12-3.12,6.66-5.83,10.54-8.08l0.22-0.12l10.47,18.13l-0.22,0.13
			c-2.28,1.32-4.36,2.92-6.2,4.75L298.45,91.47z M284.36,76.66l14.1,14.1c1.76-1.73,3.75-3.26,5.91-4.53l-9.97-17.26
			C290.72,71.12,287.34,73.71,284.36,76.66z"/>
		<path class="st1" d="M304.61,86.67l-10.47-18.13l0.22-0.13c3.86-2.23,7.99-3.95,12.26-5.09l0.24-0.06l5.42,20.22l-0.24,0.06
			c-2.52,0.67-4.94,1.68-7.21,2.99L304.61,86.67z M294.83,68.72l9.97,17.26c2.17-1.23,4.48-2.19,6.88-2.85l-5.16-19.26
			C302.44,64.98,298.52,66.61,294.83,68.72z"/>
		<path class="st1" d="M327.77,83.61l-0.24-0.06c-2.53-0.67-5.13-1.02-7.74-1.02h-0.25V61.59h0.25c4.44,0,8.87,0.58,13.16,1.73
			l0.24,0.06l-0.07,0.24L327.77,83.61z M320.03,82.03c2.49,0.02,4.97,0.35,7.38,0.97l5.16-19.26c-4.1-1.07-8.31-1.63-12.54-1.65
			V82.03z"/>
		<path class="st1" d="M293.75,97.71l-18.13-10.47l0.12-0.22c2.24-3.87,4.96-7.42,8.08-10.54l0.18-0.18l14.81,14.81l-0.18,0.18
			c-1.84,1.84-3.43,3.92-4.75,6.2L293.75,97.71z M276.31,87.06l17.26,9.97c1.27-2.16,2.79-4.14,4.53-5.91L284,77.02
			C281.05,80,278.46,83.38,276.31,87.06z"/>
		<path class="st1" d="M290.82,104.95l-0.24-0.07l-19.98-5.35l0.06-0.24c1.14-4.28,2.86-8.4,5.09-12.26l0.13-0.22L294,97.27
			l-0.12,0.22c-1.31,2.27-2.32,4.7-2.99,7.21L290.82,104.95z M271.21,99.17l19.26,5.16c0.66-2.39,1.62-4.7,2.85-6.88l-17.26-9.97
			C273.95,91.18,272.32,95.1,271.21,99.17z"/>
		<path class="st1" d="M348.75,104.95l-0.06-0.24c-0.67-2.52-1.68-4.94-2.99-7.21l-0.12-0.22l18.13-10.47l0.12,0.22
			c2.23,3.86,3.95,7.99,5.09,12.26l0.06,0.24L348.75,104.95z M346.25,97.46c1.23,2.17,2.19,4.48,2.85,6.88l19.26-5.16
			c-1.11-4.07-2.74-7.99-4.85-11.68L346.25,97.46z"/>
		<path class="st1" d="M370.64,112.7H349.7v-0.25c0-2.61-0.34-5.22-1.02-7.74l-0.06-0.24l20.22-5.42l0.06,0.24
			c1.15,4.29,1.73,8.72,1.73,13.16V112.7z M350.2,112.2h19.94c-0.02-4.23-0.58-8.45-1.65-12.54l-19.26,5.16
			C349.85,107.23,350.18,109.71,350.2,112.2z"/>
		<path class="st1" d="M289.87,112.7h-20.94v-0.25c0-4.44,0.58-8.87,1.73-13.16l0.06-0.24l0.24,0.07l19.98,5.35l-0.06,0.24
			c-0.67,2.53-1.02,5.13-1.02,7.74V112.7z M269.43,112.2h19.94c0.02-2.49,0.35-4.97,0.97-7.38l-19.26-5.16
			C270.01,103.75,269.45,107.96,269.43,112.2z"/>
		<path class="st1" d="M334.96,86.67l-0.22-0.12c-2.27-1.31-4.7-2.32-7.21-2.99l-0.24-0.06l0.07-0.24l5.35-19.98l0.24,0.06
			c4.28,1.14,8.4,2.85,12.26,5.09l0.22,0.13L334.96,86.67z M327.9,83.13c2.39,0.66,4.7,1.62,6.88,2.85l9.97-17.26
			c-3.69-2.11-7.62-3.74-11.68-4.85L327.9,83.13z"/>
		<path class="st1" d="M345.81,97.71l-0.12-0.22c-1.32-2.28-2.92-4.36-4.75-6.2l-0.18-0.18l14.81-14.81l0.18,0.18
			c3.12,3.12,5.84,6.66,8.08,10.54l0.12,0.22L345.81,97.71z M341.47,91.12c1.74,1.76,3.26,3.75,4.53,5.91l17.26-9.97
			c-2.15-3.68-4.74-7.05-7.69-10.04L341.47,91.12z"/>
		<path class="st1" d="M341.11,91.47l-0.18-0.18c-1.83-1.83-3.92-3.43-6.2-4.75l-0.22-0.12l10.47-18.13l0.22,0.12
			c3.87,2.24,7.42,4.96,10.54,8.08l0.18,0.18L341.11,91.47z M335.21,86.23c2.16,1.27,4.15,2.79,5.91,4.53l14.1-14.1
			c-2.99-2.96-6.36-5.54-10.04-7.69L335.21,86.23z"/>
		<path class="st1" d="M354.13,149.95l-0.34-0.37c0.49-0.45,0.97-0.9,1.42-1.35l-14.1-14.1c-1.76,1.73-3.75,3.26-5.91,4.53
			l1.21,2.09l-0.43,0.25l-1.46-2.53l0.22-0.12c2.28-1.32,4.36-2.92,6.2-4.75l0.18-0.18l14.81,14.81l-0.18,0.18
			C355.23,148.92,354.69,149.44,354.13,149.95z"/>
		<path class="st1" d="M347.96,154.77l-0.28-0.42c1.85-1.23,3.63-2.59,5.29-4.04l0.33,0.38
			C351.62,152.16,349.83,153.53,347.96,154.77z"/>
		<path class="st1" d="M355.57,148.58l-14.81-14.81l0.18-0.18c1.84-1.84,3.43-3.92,4.75-6.2l0.12-0.22l18.13,10.47l-0.12,0.22
			c-2.24,3.87-4.96,7.42-8.08,10.54L355.57,148.58z M341.47,133.77l14.1,14.1c2.95-2.99,5.54-6.36,7.69-10.04L346,127.87
			C344.72,130.03,343.2,132.01,341.47,133.77z"/>
		<path class="st1" d="M329.84,141.15l-0.17-0.47c1.75-0.61,3.45-1.4,5.06-2.33l0.25,0.43
			C333.35,139.73,331.61,140.53,329.84,141.15z"/>
		<path class="st1" d="M368.84,125.85l-0.24-0.07l-19.98-5.35l0.06-0.24c0.67-2.53,1.02-5.13,1.02-7.74v-0.25h20.94v0.25
			c0,4.44-0.58,8.87-1.73,13.16L368.84,125.85z M349.23,120.08l19.26,5.16c1.07-4.1,1.63-8.31,1.65-12.54H350.2
			C350.18,115.18,349.85,117.66,349.23,120.08z"/>
		<path class="st1" d="M363.69,138.09l-18.13-10.47l0.12-0.22c1.31-2.27,2.32-4.7,2.99-7.21l0.06-0.24l0.24,0.07l19.98,5.35
			l-0.06,0.24c-1.14,4.28-2.85,8.4-5.09,12.26L363.69,138.09z M346.25,127.43l17.26,9.97c2.11-3.69,3.74-7.62,4.85-11.68
			l-19.26-5.16C348.44,122.95,347.48,125.26,346.25,127.43z"/>
		<path class="st1" d="M309.67,141.13c-1.68-0.59-3.32-1.34-4.88-2.23l-1.26,2.18l-0.43-0.25l1.51-2.62l0.22,0.12
			c1.6,0.92,3.28,1.7,5.01,2.31L309.67,141.13z"/>
		<path class="st1" d="M275.88,138.09l-0.13-0.22c-2.23-3.86-3.94-7.98-5.09-12.26l-0.06-0.24l20.23-5.42l0.06,0.24
			c0.67,2.51,1.68,4.94,2.99,7.21l0.12,0.22L275.88,138.09z M271.21,125.72c1.11,4.07,2.74,8,4.85,11.68l17.26-9.97
			c-1.23-2.17-2.19-4.48-2.85-6.88L271.21,125.72z"/>
		<path class="st1" d="M277.75,141.06c-0.7-1.03-1.37-2.1-2-3.19l-0.12-0.22l18.13-10.47l0.12,0.22c1.32,2.28,2.92,4.36,4.75,6.2
			l-0.35,0.35c-1.81-1.81-3.39-3.85-4.71-6.08l-17.26,9.97c0.59,1,1.21,1.99,1.86,2.94L277.75,141.06z"/>
		<path class="st1" d="M291.65,140.93l-0.35-0.35l7.15-7.15l0.18,0.18c1.83,1.83,3.92,3.43,6.2,4.75l-0.25,0.43
			c-2.24-1.3-4.3-2.86-6.12-4.66L291.65,140.93z"/>
		<path class="st1" d="M270.73,125.85l-0.06-0.24c-1.15-4.29-1.73-8.72-1.73-13.16v-0.25h20.94v0.25c0,2.61,0.34,5.22,1.02,7.74
			l0.06,0.24L270.73,125.85z M269.43,112.7c0.02,4.23,0.57,8.45,1.65,12.54l19.26-5.16c-0.62-2.41-0.95-4.89-0.97-7.38H269.43z"/>
		<path class="st1" d="M307.51,109.42l-12.47-3.34l0.06-0.24c0.57-2.15,1.43-4.22,2.56-6.16l0.12-0.22l11.18,6.45l-0.25,0.43
			l-10.74-6.2c-1,1.77-1.78,3.64-2.32,5.58l11.99,3.21L307.51,109.42z"/>
		<path class="st1" d="M308.71,106.34l-11.18-6.45l0.12-0.22c1.12-1.94,2.49-3.73,4.06-5.29l0.18-0.18l9.12,9.12l-0.35,0.35
			l-8.77-8.77c-1.41,1.43-2.64,3.05-3.68,4.8l10.74,6.2L308.71,106.34z"/>
		<path class="st1" d="M295.17,119.3l-0.06-0.24c-0.58-2.16-0.87-4.39-0.87-6.61v-0.25h12.9v0.5h-12.4
			c0.02,2.02,0.29,4.03,0.79,5.99l11.99-3.21l0.13,0.48L295.17,119.3z"/>
		<path class="st1" d="M310.66,103.68l-9.12-9.12l0.18-0.18c1.57-1.57,3.35-2.93,5.29-4.06l0.22-0.12l6.45,11.18l-0.43,0.25
			l-6.2-10.74c-1.75,1.04-3.36,2.27-4.8,3.68l8.77,8.77L310.66,103.68z"/>
		<path class="st1" d="M307.13,112.7h-12.9v-0.25c0-2.23,0.29-4.45,0.87-6.61l0.06-0.24l0.24,0.07l12.23,3.28l-0.13,0.48
			l-11.99-3.21c-0.5,1.96-0.77,3.97-0.79,5.99h12.4V112.7z"/>
		<path class="st1" d="M313.25,101.62l-6.45-11.18l0.22-0.13c1.94-1.12,4.01-1.98,6.16-2.56l0.24-0.06l3.34,12.47l-0.48,0.13
			l-3.21-11.99c-1.94,0.54-3.82,1.32-5.58,2.32l6.2,10.74L313.25,101.62z"/>
		<path class="st1" d="M326.32,101.62l-0.43-0.25l6.2-10.74c-1.76-1-3.64-1.78-5.58-2.32l-3.21,11.99l-0.48-0.13l3.34-12.47
			l0.24,0.06c2.15,0.57,4.22,1.43,6.16,2.56l0.22,0.13L326.32,101.62z"/>
		<path class="st1" d="M297.78,125.44l-0.12-0.22c-1.12-1.94-1.98-4.01-2.56-6.16l-0.06-0.24l12.47-3.34l0.13,0.48l-11.99,3.21
			c0.54,1.94,1.32,3.81,2.32,5.58l10.74-6.2l0.25,0.43L297.78,125.44z"/>
		<path class="st1" d="M330.86,106.34l-0.25-0.43l10.74-6.2c-1.04-1.75-2.27-3.36-3.68-4.8l-8.77,8.77l-0.35-0.35l9.12-9.12
			l0.18,0.18c1.57,1.57,2.93,3.35,4.06,5.29l0.12,0.22L330.86,106.34z"/>
		<path class="st1" d="M328.91,103.68l-0.35-0.35l8.77-8.77c-1.43-1.41-3.04-2.64-4.8-3.68l-6.2,10.74l-0.43-0.25l6.45-11.18
			l0.22,0.12c1.95,1.13,3.73,2.49,5.29,4.06l0.18,0.18L328.91,103.68z"/>
		<path class="st1" d="M323.3,100.3l-0.48-0.13l3.21-11.99c-1.96-0.5-3.97-0.77-5.99-0.79v12.4h-0.5v-12.9h0.25
			c2.23,0,4.46,0.29,6.61,0.87l0.24,0.06l-0.07,0.24L323.3,100.3z"/>
		<path class="st1" d="M316.27,100.3l-3.34-12.47l0.24-0.06c2.16-0.58,4.38-0.87,6.61-0.87h0.25v12.9h-0.5V87.4
			c-2.02,0.02-4.04,0.29-5.99,0.79l3.21,11.99L316.27,100.3z"/>
		<path class="st1" d="M320.03,138h-0.25c-2.23,0-4.46-0.29-6.61-0.87l-0.24-0.06l0.07-0.24l3.28-12.23l0.48,0.13l-3.21,11.99
			c1.96,0.5,3.97,0.77,5.99,0.79v-12.4h0.5V138z"/>
		<path class="st1" d="M344.4,119.3l-0.24-0.07l-12.23-3.28l0.13-0.48l11.99,3.21c0.5-1.96,0.77-3.97,0.79-5.99h-12.4v-0.5h12.9
			v0.25c0,2.23-0.29,4.46-0.87,6.61L344.4,119.3z"/>
		<path class="st1" d="M341.79,125.44l-11.18-6.45l0.25-0.43l10.74,6.2c1-1.77,1.78-3.64,2.32-5.58l-11.99-3.21l0.13-0.48
			l12.47,3.34l-0.06,0.24c-0.57,2.15-1.43,4.22-2.56,6.16L341.79,125.44z"/>
		<path class="st1" d="M345.34,112.7h-12.9v-0.5h12.4c-0.02-2.02-0.29-4.04-0.79-5.99l-11.99,3.21l-0.13-0.48l12.47-3.34l0.06,0.24
			c0.58,2.16,0.87,4.38,0.87,6.61V112.7z"/>
		<path class="st1" d="M337.67,130.69l-9.12-9.12l0.35-0.35l8.77,8.77c1.41-1.43,2.64-3.05,3.68-4.8l-10.74-6.2l0.25-0.43
			l11.18,6.45l-0.12,0.22c-1.13,1.94-2.49,3.73-4.06,5.29L337.67,130.69z"/>
		<path class="st1" d="M332.06,109.42l-0.13-0.48l11.99-3.21c-0.54-1.94-1.32-3.82-2.32-5.58l-10.74,6.2l-0.25-0.43l11.18-6.45
			l0.12,0.22c1.12,1.94,1.98,4.01,2.56,6.16l0.06,0.24L332.06,109.42z"/>
		<path class="st1" d="M301.89,130.69l-0.18-0.18c-1.57-1.57-2.93-3.35-4.06-5.29l-0.12-0.22l11.18-6.45l0.25,0.43l-10.74,6.2
			c1.04,1.75,2.27,3.36,3.68,4.8l8.77-8.77l0.35,0.35L301.89,130.69z"/>
		<path class="st1" d="M307.23,134.7l-0.22-0.12c-1.94-1.12-3.73-2.49-5.29-4.06l-0.18-0.18l9.12-9.12l0.35,0.35l-8.77,8.77
			c1.43,1.41,3.05,2.64,4.8,3.68l6.2-10.74l0.43,0.25L307.23,134.7z"/>
		<path class="st1" d="M313.41,137.19l-0.24-0.06c-2.15-0.57-4.22-1.44-6.16-2.56l-0.22-0.13l6.45-11.18l0.43,0.25l-6.2,10.74
			c1.76,1,3.64,1.78,5.58,2.32l3.21-11.99l0.48,0.13L313.41,137.19z"/>
		<path class="st1" d="M332.34,134.7l-6.45-11.18l0.43-0.25l6.2,10.74c1.75-1.04,3.36-2.27,4.8-3.68l-8.77-8.77l0.35-0.35l9.12,9.12
			l-0.18,0.18c-1.57,1.57-3.35,2.93-5.29,4.06L332.34,134.7z"/>
		<path class="st1" d="M319.78,138h-0.25v-12.9h0.5v12.4c2.02-0.02,4.03-0.29,5.99-0.79l-3.21-11.99l0.48-0.13l3.34,12.47
			l-0.24,0.06C324.24,137.7,322.02,138,319.78,138z"/>
		<path class="st1" d="M326.16,137.19l-3.34-12.47l0.48-0.13l3.21,11.99c1.94-0.54,3.82-1.32,5.58-2.32l-6.2-10.74l0.43-0.25
			l6.45,11.18l-0.22,0.13c-1.94,1.12-4.01,1.98-6.16,2.56L326.16,137.19z"/>
		<polygon class="st1" points="319.05,114.22 322.81,100.17 323.3,100.3 320.52,110.68 325.89,101.37 326.32,101.62 		"/>
		<polygon class="st1" points="316.75,124.72 316.27,124.59 319.05,114.22 313.68,123.52 313.25,123.27 320.52,110.68 		"/>
		<polygon class="st1" points="320.03,125.1 319.53,125.1 319.53,110.55 323.3,124.59 322.81,124.72 320.03,114.35 		"/>
		<polygon class="st1" points="321.68,112.7 307.13,112.7 307.13,112.2 317.89,112.2 307.51,109.42 307.64,108.93 		"/>
		<polygon class="st1" points="308.96,118.98 308.71,118.55 318.01,113.18 307.64,115.96 307.51,115.48 321.55,111.71 		"/>
		<polygon class="st1" points="311.02,121.57 310.66,121.21 318.26,113.61 308.96,118.98 308.71,118.55 321.3,111.28 		"/>
		<polygon class="st1" points="332.43,112.7 317.89,112.7 331.93,108.93 332.06,109.42 321.68,112.2 332.43,112.2 		"/>
		<polygon class="st1" points="318.01,113.18 330.61,105.91 330.86,106.34 321.55,111.71 331.93,108.93 332.06,109.42 		"/>
		<polygon class="st1" points="318.26,113.61 328.55,103.32 328.91,103.68 321.3,111.28 330.61,105.91 330.86,106.34 		"/>
		<polygon class="st1" points="325.89,123.52 318.62,110.93 328.91,121.21 328.55,121.57 320.95,113.97 326.32,123.27 		"/>
		<polygon class="st1" points="330.61,118.98 318.01,111.71 332.06,115.48 331.93,115.96 321.55,113.18 330.86,118.55 		"/>
		<polygon class="st1" points="321.55,113.18 307.51,109.42 307.64,108.93 318.01,111.71 308.71,106.34 308.96,105.91 		"/>
		<polygon class="st1" points="320.52,114.21 313.25,101.62 313.68,101.37 319.05,110.68 316.27,100.3 316.75,100.17 		"/>
		<polygon class="st1" points="320.95,113.97 310.66,103.68 311.02,103.32 318.62,110.93 313.25,101.62 313.68,101.37 		"/>
		<polygon class="st1" points="320.03,114.34 316.27,100.3 316.75,100.17 319.53,110.55 319.53,99.79 320.03,99.79 		"/>
		<path class="st1" d="M377.87,115.63c-1.76,0-3.19-1.43-3.19-3.19c0-1.76,1.43-3.19,3.19-3.19s3.19,1.43,3.19,3.19
			C381.06,114.2,379.63,115.63,377.87,115.63z M377.87,109.76c-1.48,0-2.69,1.21-2.69,2.69c0,1.48,1.21,2.69,2.69,2.69
			s2.69-1.21,2.69-2.69C380.56,110.96,379.36,109.76,377.87,109.76z"/>
		<path class="st1" d="M261.7,115.63c-1.76,0-3.19-1.43-3.19-3.19c0-1.76,1.43-3.19,3.19-3.19s3.19,1.43,3.19,3.19
			C264.88,114.2,263.45,115.63,261.7,115.63z M261.7,109.76c-1.48,0-2.69,1.21-2.69,2.69c0,1.48,1.21,2.69,2.69,2.69
			s2.69-1.21,2.69-2.69C264.38,110.96,263.18,109.76,261.7,109.76z"/>
		<path class="st1" d="M319.78,57.55c-1.76,0-3.19-1.43-3.19-3.19c0-1.76,1.43-3.19,3.19-3.19s3.19,1.43,3.19,3.19
			C322.97,56.11,321.54,57.55,319.78,57.55z M319.78,51.67c-1.48,0-2.69,1.21-2.69,2.69c0,1.48,1.21,2.69,2.69,2.69
			s2.69-1.21,2.69-2.69C322.47,52.87,321.27,51.67,319.78,51.67z"/>
		<path class="st1" d="M375.89,100.6c-0.55,0-1.1-0.14-1.59-0.43c-0.74-0.43-1.27-1.11-1.49-1.94c-0.46-1.7,0.56-3.45,2.25-3.91
			c1.7-0.46,3.45,0.56,3.91,2.25c0.45,1.7-0.56,3.45-2.26,3.91h0C376.44,100.57,376.16,100.6,375.89,100.6z M375.89,94.72
			c-0.23,0-0.46,0.03-0.7,0.09c-1.43,0.38-2.29,1.86-1.9,3.29c0.19,0.69,0.63,1.27,1.25,1.63s1.35,0.46,2.04,0.27h0
			c1.43-0.38,2.28-1.86,1.9-3.29C378.17,95.52,377.08,94.72,375.89,94.72z"/>
		<path class="st1" d="M263.68,130.67c-1.41,0-2.7-0.94-3.08-2.36c-0.22-0.82-0.11-1.68,0.32-2.42c0.43-0.74,1.11-1.27,1.94-1.49
			c1.7-0.46,3.45,0.56,3.91,2.25c0.22,0.82,0.11,1.68-0.32,2.42c-0.43,0.74-1.11,1.27-1.94,1.49
			C264.22,130.63,263.95,130.67,263.68,130.67z M263.67,124.79c-0.23,0-0.46,0.03-0.7,0.09c-0.69,0.19-1.27,0.63-1.63,1.25
			c-0.36,0.62-0.45,1.35-0.27,2.04c0.38,1.43,1.86,2.28,3.29,1.9c0.69-0.19,1.27-0.63,1.63-1.25c0.36-0.62,0.45-1.35,0.27-2.04
			C265.95,125.58,264.86,124.79,263.67,124.79z"/>
		<path class="st1" d="M304.74,59.53c-0.55,0-1.1-0.14-1.59-0.43c-0.74-0.43-1.27-1.11-1.49-1.94c-0.45-1.7,0.56-3.45,2.25-3.91
			c1.7-0.46,3.45,0.56,3.91,2.25c0.22,0.82,0.11,1.68-0.32,2.42c-0.43,0.74-1.11,1.27-1.94,1.49
			C305.3,59.49,305.02,59.53,304.74,59.53z M304.75,53.65c-0.23,0-0.46,0.03-0.7,0.09c-1.43,0.38-2.28,1.86-1.9,3.29
			c0.19,0.69,0.63,1.27,1.25,1.63c0.62,0.36,1.35,0.46,2.04,0.27c0.69-0.19,1.27-0.63,1.63-1.25c0.36-0.62,0.45-1.35,0.27-2.04l0,0
			C307.03,54.44,305.94,53.65,304.75,53.65z"/>
		<path class="st1" d="M370.1,86.59c-0.28,0-0.56-0.04-0.83-0.11c-0.82-0.22-1.51-0.75-1.94-1.49c-0.88-1.52-0.36-3.48,1.17-4.36
			c1.52-0.88,3.48-0.35,4.36,1.17c0.88,1.52,0.35,3.48-1.17,4.36l0,0C371.19,86.45,370.65,86.59,370.1,86.59z M370.09,80.71
			c-0.46,0-0.92,0.12-1.34,0.36c-1.28,0.74-1.73,2.39-0.98,3.67c0.36,0.62,0.94,1.07,1.63,1.25c0.69,0.19,1.42,0.09,2.04-0.27l0,0
			c1.28-0.74,1.73-2.39,0.98-3.67C371.92,81.19,371.02,80.71,370.09,80.71z"/>
		<path class="st1" d="M266.83,141.02l-0.49-0.09c0.17-0.93,0.73-1.73,1.55-2.2c0.74-0.43,1.6-0.54,2.42-0.32
			c0.82,0.22,1.51,0.75,1.94,1.49c0.19,0.32,0.31,0.67,0.38,1.03l-0.49,0.09c-0.05-0.31-0.16-0.6-0.32-0.87
			c-0.36-0.62-0.94-1.07-1.63-1.25c-0.69-0.19-1.42-0.09-2.04,0.27C267.45,139.56,266.97,140.24,266.83,141.02z"/>
		<path class="st1" d="M290.74,65.33c-1.1,0-2.18-0.57-2.77-1.59c-0.88-1.52-0.36-3.48,1.17-4.36c1.52-0.88,3.48-0.36,4.36,1.17l0,0
			c0.43,0.74,0.54,1.6,0.32,2.42c-0.22,0.82-0.75,1.51-1.49,1.94C291.83,65.19,291.29,65.33,290.74,65.33z M290.73,59.45
			c-0.46,0-0.92,0.12-1.34,0.36c-1.28,0.74-1.73,2.39-0.98,3.67c0.74,1.28,2.39,1.73,3.67,0.98c0.62-0.36,1.07-0.94,1.25-1.63
			c0.19-0.69,0.09-1.42-0.27-2.04l0,0C292.57,59.93,291.66,59.45,290.73,59.45z"/>
		<path class="st1" d="M360.86,74.56c-0.82,0-1.63-0.31-2.25-0.93c-0.6-0.6-0.93-1.4-0.93-2.25s0.33-1.65,0.93-2.25
			c0.6-0.6,1.4-0.93,2.25-0.93c0.85,0,1.65,0.33,2.25,0.93s0.93,1.4,0.93,2.25s-0.33,1.65-0.93,2.25
			C362.49,74.25,361.68,74.56,360.86,74.56z M360.86,68.68c-0.72,0-1.39,0.28-1.9,0.79s-0.79,1.18-0.79,1.9s0.28,1.39,0.79,1.9
			c1.05,1.05,2.75,1.05,3.8,0c0.51-0.51,0.79-1.18,0.79-1.9s-0.28-1.39-0.79-1.9S361.58,68.68,360.86,68.68z"/>
		<path class="st1" d="M360.86,156.71c-0.82,0-1.63-0.31-2.25-0.93l0,0c-0.6-0.6-0.93-1.4-0.93-2.25c0-0.85,0.33-1.65,0.93-2.25
			c0.6-0.6,1.4-0.93,2.25-0.93c0.85,0,1.65,0.33,2.25,0.93s0.93,1.4,0.93,2.25c0,0.85-0.33,1.65-0.93,2.25
			C362.49,156.4,361.68,156.71,360.86,156.71z M358.96,155.42c1.05,1.05,2.75,1.05,3.8,0c0.51-0.51,0.79-1.18,0.79-1.9
			c0-0.72-0.28-1.39-0.79-1.9s-1.18-0.79-1.9-0.79s-1.39,0.28-1.9,0.79s-0.79,1.18-0.79,1.9
			C358.17,154.24,358.45,154.91,358.96,155.42L358.96,155.42z"/>
		<path class="st1" d="M278.71,74.56c-0.82,0-1.63-0.31-2.25-0.93c-0.6-0.6-0.93-1.4-0.93-2.25s0.33-1.65,0.93-2.25
			s1.4-0.93,2.25-0.93c0.85,0,1.65,0.33,2.25,0.93c0.6,0.6,0.93,1.4,0.93,2.25s-0.33,1.65-0.93,2.25
			C280.34,74.25,279.53,74.56,278.71,74.56z M278.71,68.68c-0.72,0-1.39,0.28-1.9,0.79s-0.79,1.18-0.79,1.9s0.28,1.39,0.79,1.9
			c1.05,1.05,2.75,1.05,3.8,0c0.51-0.51,0.79-1.18,0.79-1.9s-0.28-1.39-0.79-1.9l0,0C280.1,68.96,279.43,68.68,278.71,68.68z"/>
		<path class="st1" d="M348.82,65.33c-0.54,0-1.09-0.14-1.59-0.43c-0.74-0.43-1.27-1.11-1.49-1.94c-0.22-0.82-0.11-1.68,0.32-2.42
			c0.88-1.52,2.83-2.05,4.36-1.17c1.52,0.88,2.05,2.83,1.17,4.36l0,0C351,64.76,349.93,65.33,348.82,65.33z M348.83,59.45
			c-0.93,0-1.84,0.48-2.33,1.34c-0.36,0.62-0.45,1.35-0.27,2.04c0.19,0.69,0.63,1.27,1.25,1.63c1.28,0.74,2.93,0.3,3.67-0.98
			c0.74-1.28,0.3-2.93-0.98-3.67C349.75,59.57,349.29,59.45,348.83,59.45z"/>
		<path class="st1" d="M370.08,144.68c-0.54,0-1.09-0.14-1.59-0.43c-0.74-0.43-1.27-1.11-1.49-1.94c-0.22-0.82-0.11-1.68,0.32-2.42
			c0.43-0.74,1.11-1.27,1.94-1.49c0.82-0.22,1.68-0.11,2.42,0.32c0.74,0.43,1.27,1.11,1.49,1.94c0.22,0.82,0.11,1.68-0.32,2.42
			C372.26,144.11,371.19,144.68,370.08,144.68z M370.1,138.8c-0.23,0-0.47,0.03-0.7,0.09c-0.69,0.19-1.27,0.63-1.63,1.25
			c-0.36,0.62-0.45,1.35-0.27,2.04c0.19,0.69,0.63,1.27,1.25,1.63c1.28,0.74,2.93,0.3,3.67-0.98c0.36-0.62,0.45-1.35,0.27-2.04
			c-0.19-0.69-0.63-1.27-1.25-1.63C371.02,138.92,370.56,138.8,370.1,138.8z"/>
		<path class="st1" d="M269.47,86.59c-0.55,0-1.1-0.14-1.59-0.43c-1.52-0.88-2.05-2.83-1.17-4.36c0.88-1.52,2.83-2.04,4.36-1.17
			c1.52,0.88,2.05,2.83,1.17,4.36c-0.43,0.74-1.11,1.27-1.94,1.49C270.03,86.56,269.75,86.59,269.47,86.59z M269.48,80.71
			c-0.93,0-1.84,0.48-2.33,1.34c-0.74,1.28-0.3,2.93,0.98,3.67c0.62,0.36,1.35,0.46,2.04,0.27c0.69-0.19,1.27-0.63,1.63-1.25
			c0.74-1.28,0.3-2.93-0.98-3.67C270.4,80.83,269.94,80.71,269.48,80.71z"/>
		<path class="st1" d="M334.82,59.53c-0.28,0-0.56-0.04-0.83-0.11c-0.82-0.22-1.51-0.75-1.94-1.49c-0.43-0.74-0.54-1.6-0.32-2.42
			c0.46-1.7,2.21-2.71,3.91-2.25c1.7,0.46,2.71,2.21,2.26,3.91l0,0c-0.22,0.82-0.75,1.51-1.49,1.94
			C335.92,59.38,335.38,59.53,334.82,59.53z M334.82,53.65c-1.19,0-2.28,0.79-2.6,1.99c-0.19,0.69-0.09,1.42,0.27,2.04
			c0.36,0.62,0.94,1.07,1.63,1.25c0.69,0.18,1.42,0.09,2.04-0.27s1.07-0.94,1.25-1.63c0.38-1.43-0.47-2.91-1.9-3.29
			C335.28,53.68,335.05,53.65,334.82,53.65z"/>
		<path class="st1" d="M375.89,130.67c-0.27,0-0.55-0.04-0.82-0.11c-0.82-0.22-1.51-0.75-1.94-1.49c-0.43-0.74-0.54-1.6-0.32-2.42
			c0.45-1.7,2.21-2.71,3.91-2.25c0.82,0.22,1.51,0.75,1.94,1.49c0.43,0.74,0.54,1.6,0.32,2.42
			C378.59,129.73,377.3,130.67,375.89,130.67z M375.89,124.79c-1.19,0-2.28,0.79-2.6,1.99c-0.19,0.69-0.09,1.42,0.27,2.04
			c0.36,0.62,0.94,1.07,1.63,1.25c1.43,0.38,2.91-0.47,3.29-1.9c0.19-0.69,0.09-1.42-0.27-2.04c-0.36-0.62-0.94-1.07-1.63-1.25
			C376.36,124.82,376.12,124.79,375.89,124.79z"/>
		<path class="st1" d="M263.68,100.6c-0.28,0-0.56-0.04-0.83-0.11c-1.7-0.45-2.71-2.21-2.25-3.91c0.46-1.7,2.21-2.71,3.91-2.25h0
			c1.7,0.46,2.71,2.21,2.25,3.91c-0.22,0.82-0.75,1.51-1.49,1.94C264.78,100.46,264.23,100.6,263.68,100.6z M263.68,94.72
			c-1.19,0-2.28,0.79-2.6,1.99c-0.38,1.43,0.47,2.91,1.9,3.29c0.7,0.18,1.42,0.09,2.04-0.27c0.62-0.36,1.07-0.94,1.25-1.63
			c0.38-1.43-0.47-2.91-1.9-3.29C264.14,94.75,263.9,94.72,263.68,94.72z"/>
		<path class="st1" d="M163.87,179.5h-0.5V66.27h-14.23c-1.79,0-3.45-0.8-4.56-2.2l-2.4-3.03c-1.4-1.76-3.48-2.77-5.73-2.77h-13.31
			v76.98h-0.5V57.77h13.81c2.4,0,4.63,1.08,6.12,2.96l2.4,3.03c1.01,1.28,2.53,2.01,4.17,2.01h14.73V179.5z"/>
		<rect x="127.25" y="71.29" class="st1" width="32.85" height="0.5"/>
		<rect x="127.25" y="76.03" class="st1" width="32.85" height="0.5"/>
		<rect x="127.25" y="80.78" class="st1" width="32.85" height="0.5"/>
		<rect x="127.25" y="85.52" class="st1" width="32.85" height="0.5"/>
		<rect x="127.25" y="90.26" class="st1" width="32.85" height="0.5"/>
		<rect x="127.25" y="95.01" class="st1" width="32.85" height="0.5"/>
		<path class="st1" d="M207.41,179.5h-0.5V86.27h-14.23c-1.79,0-3.45-0.8-4.56-2.2l-2.4-3.03c-1.4-1.76-3.48-2.77-5.73-2.77h-13.31
			V179.5h-0.5V77.77H180c2.4,0,4.63,1.08,6.12,2.96l2.4,3.03c1.01,1.28,2.53,2.01,4.17,2.01h14.73V179.5z"/>
		<rect x="170.79" y="91.29" class="st1" width="32.85" height="0.5"/>
		<rect x="170.79" y="96.03" class="st1" width="32.85" height="0.5"/>
		<rect x="170.79" y="100.78" class="st1" width="32.85" height="0.5"/>
		<rect x="170.79" y="105.52" class="st1" width="32.85" height="0.5"/>
		<rect x="170.79" y="110.26" class="st1" width="32.85" height="0.5"/>
		<rect x="170.79" y="115.01" class="st1" width="32.85" height="0.5"/>
		<path class="st1" d="M210.22,179.5h-0.5V97.77h13.81c2.4,0,4.63,1.08,6.12,2.96l2.4,3.03c1.01,1.28,2.53,2.01,4.17,2.01h14.73
			v35.14h-0.5v-34.64h-14.23c-1.79,0-3.45-0.8-4.56-2.2l-2.4-3.03c-1.4-1.76-3.48-2.77-5.73-2.77h-13.31V179.5z"/>
		<rect x="214.33" y="111.29" class="st1" width="32.85" height="0.5"/>
		<rect x="214.33" y="116.03" class="st1" width="32.85" height="0.5"/>
		<rect x="214.33" y="120.78" class="st1" width="32.85" height="0.5"/>
		<rect x="214.33" y="125.52" class="st1" width="32.85" height="0.5"/>
		<rect x="214.33" y="130.26" class="st1" width="32.85" height="0.5"/>
		<rect x="214.33" y="135.01" class="st1" width="32.85" height="0.5"/>
		<polygon class="st1" points="153.21,179.5 152.71,179.5 152.71,135.51 87.06,135.51 87.06,179.5 86.56,179.5 86.56,135.01 
			153.21,135.01 		"/>
		<rect x="98.42" y="142.29" class="st1" width="9.38" height="0.5"/>
		<rect x="110.09" y="142.29" class="st1" width="9.38" height="0.5"/>
		<rect x="121.77" y="142.29" class="st1" width="9.38" height="0.5"/>
		<rect x="133.44" y="142.29" class="st1" width="9.38" height="0.5"/>
		<rect x="98.42" y="146.21" class="st1" width="9.38" height="0.5"/>
		<rect x="110.09" y="146.21" class="st1" width="9.38" height="0.5"/>
		<rect x="121.77" y="146.21" class="st1" width="9.38" height="0.5"/>
		<rect x="133.44" y="146.21" class="st1" width="9.38" height="0.5"/>
		<rect x="97.68" y="150.13" class="st1" width="9.38" height="0.5"/>
		<rect x="109.35" y="150.13" class="st1" width="9.38" height="0.5"/>
		<rect x="121.03" y="150.13" class="st1" width="9.38" height="0.5"/>
		<rect x="132.71" y="150.13" class="st1" width="9.38" height="0.5"/>
		<rect x="97.68" y="154.05" class="st1" width="9.38" height="0.5"/>
		<rect x="109.35" y="154.05" class="st1" width="9.38" height="0.5"/>
		<rect x="121.03" y="154.05" class="st1" width="9.38" height="0.5"/>
		<rect x="132.71" y="154.05" class="st1" width="9.38" height="0.5"/>
		<rect x="97.68" y="157.97" class="st1" width="9.38" height="0.5"/>
		<rect x="109.35" y="157.97" class="st1" width="9.38" height="0.5"/>
		<rect x="121.03" y="157.97" class="st1" width="9.38" height="0.5"/>
		<rect x="132.71" y="157.97" class="st1" width="9.38" height="0.5"/>
		<rect x="97.68" y="161.89" class="st1" width="9.38" height="0.5"/>
		<rect x="109.35" y="161.89" class="st1" width="9.38" height="0.5"/>
		<rect x="121.03" y="161.89" class="st1" width="9.38" height="0.5"/>
		<rect x="132.71" y="161.89" class="st1" width="9.38" height="0.5"/>
		<polygon class="st1" points="116.82,135.26 116.32,135.26 116.32,88.31 92.86,88.31 92.86,135.26 92.36,135.26 92.36,87.81 
			116.82,87.81 		"/>
		<rect x="95.72" y="93.11" class="st1" width="4.38" height="0.5"/>
		<rect x="102.39" y="93.11" class="st1" width="4.38" height="0.5"/>
		<rect x="95.72" y="97.03" class="st1" width="4.38" height="0.5"/>
		<rect x="102.39" y="97.03" class="st1" width="4.38" height="0.5"/>
		<rect x="95.72" y="100.94" class="st1" width="4.38" height="0.5"/>
		<rect x="102.39" y="100.94" class="st1" width="4.38" height="0.5"/>
		<rect x="95.72" y="104.86" class="st1" width="4.38" height="0.5"/>
		<rect x="102.39" y="104.86" class="st1" width="4.38" height="0.5"/>
		<rect x="95.72" y="108.78" class="st1" width="4.38" height="0.5"/>
		<rect x="102.39" y="108.78" class="st1" width="4.38" height="0.5"/>
		<rect x="95.72" y="112.7" class="st1" width="4.38" height="0.5"/>
		<rect x="102.39" y="112.7" class="st1" width="4.38" height="0.5"/>
		<rect x="109.07" y="93.11" class="st1" width="4.38" height="0.5"/>
		<rect x="109.07" y="97.03" class="st1" width="4.38" height="0.5"/>
		<rect x="109.07" y="100.94" class="st1" width="4.38" height="0.5"/>
		<rect x="109.07" y="104.86" class="st1" width="4.38" height="0.5"/>
		<rect x="109.07" y="108.78" class="st1" width="4.38" height="0.5"/>
		<rect x="109.07" y="112.7" class="st1" width="4.38" height="0.5"/>
		<path class="st1" d="M277.1,168.4h-3.18v-29.48h3.18V168.4z M274.43,167.9h2.18v-28.48h-2.18V167.9z"/>
		<path class="st1" d="M264.83,168.4h-3.18v-20.69h3.18V168.4z M262.15,167.9h2.18v-19.69h-2.18V167.9z"/>
		<rect x="264.58" y="150.24" class="st1" width="9.6" height="0.5"/>
		<rect x="252.31" y="150.24" class="st1" width="9.6" height="0.5"/>
		<rect x="240.03" y="150.24" class="st1" width="9.6" height="0.5"/>
		<polygon class="st1" points="237.35,150.74 220.29,150.74 230.36,140.67 274.18,140.67 274.18,141.17 230.57,141.17 
			221.49,150.24 237.35,150.24 		"/>
		
			<rect x="274.87" y="145.45" transform="matrix(0.7071 -0.7071 0.7071 0.7071 -20.5282 241.8306)" class="st1" width="13.57" height="0.5"/>
		
			<rect x="274.87" y="142.95" transform="matrix(0.7071 -0.7071 0.7071 0.7071 -18.7646 241.1001)" class="st1" width="13.57" height="0.5"/>
		<rect x="231.26" y="173.2" class="st1" width="0.5" height="6.3"/>
		<rect x="235.01" y="173.2" class="st1" width="0.5" height="6.3"/>
		<rect x="238.76" y="173.2" class="st1" width="0.5" height="6.3"/>
		<rect x="242.51" y="173.2" class="st1" width="0.5" height="6.3"/>
		<rect x="246.27" y="173.2" class="st1" width="0.5" height="6.3"/>
		<rect x="250.02" y="173.2" class="st1" width="0.5" height="6.3"/>
		<rect x="253.77" y="173.2" class="st1" width="0.5" height="6.3"/>
		<rect x="257.52" y="173.2" class="st1" width="0.5" height="6.3"/>
		<rect x="261.27" y="173.2" class="st1" width="0.5" height="6.3"/>
		<rect x="265.03" y="173.2" class="st1" width="0.5" height="6.3"/>
		<rect x="268.78" y="173.2" class="st1" width="0.5" height="6.3"/>
		<rect x="272.53" y="173.2" class="st1" width="0.5" height="6.3"/>
		<rect x="276.28" y="173.2" class="st1" width="0.5" height="6.3"/>
		<rect x="280.03" y="173.2" class="st1" width="0.5" height="6.3"/>
		<rect x="283.79" y="173.2" class="st1" width="0.5" height="6.3"/>
		<rect x="287.54" y="173.2" class="st1" width="0.5" height="6.3"/>
		<rect x="230.71" y="154.37" class="st1" width="0.5" height="4.71"/>
		<rect x="233.9" y="154.37" class="st1" width="0.5" height="4.71"/>
		<rect x="242.98" y="154.37" class="st1" width="0.5" height="4.71"/>
		<rect x="246.18" y="154.37" class="st1" width="0.5" height="4.71"/>
		<rect x="255.03" y="154.37" class="st1" width="0.5" height="4.71"/>
		<rect x="258.23" y="154.37" class="st1" width="0.5" height="4.71"/>
		<rect x="267.53" y="154.37" class="st1" width="0.5" height="4.71"/>
		<rect x="270.73" y="154.37" class="st1" width="0.5" height="4.71"/>
		<rect x="279.8" y="154.37" class="st1" width="0.5" height="4.71"/>
		<rect x="283" y="154.37" class="st1" width="0.5" height="4.71"/>
		<rect x="283" y="147.48" class="st1" width="0.5" height="4.71"/>
		<g>
			<rect x="230.71" y="161.26" class="st1" width="0.5" height="4.71"/>
			<rect x="233.9" y="161.26" class="st1" width="0.5" height="4.71"/>
			<rect x="242.98" y="161.26" class="st1" width="0.5" height="4.71"/>
			<rect x="246.18" y="161.26" class="st1" width="0.5" height="4.71"/>
			<rect x="255.03" y="161.26" class="st1" width="0.5" height="4.71"/>
			<rect x="258.23" y="161.26" class="st1" width="0.5" height="4.71"/>
			<rect x="267.53" y="161.26" class="st1" width="0.5" height="4.71"/>
			<rect x="270.73" y="161.26" class="st1" width="0.5" height="4.71"/>
			<rect x="279.8" y="161.26" class="st1" width="0.5" height="4.71"/>
			<rect x="283" y="161.26" class="st1" width="0.5" height="4.71"/>
		</g>
		<rect x="286.2" y="153.87" class="st1" width="0.5" height="4.71"/>
		<rect x="227.51" y="150.49" class="st1" width="0.5" height="29.01"/>
		<polygon class="st1" points="287.79,173.45 227.51,173.45 227.51,167.9 287.79,167.9 287.79,168.4 228.01,168.4 228.01,172.95 
			287.79,172.95 		"/>
		<path class="st1" d="M240.28,168.4h-3.18v-20.69h3.18V168.4z M237.6,167.9h2.18v-19.69h-2.18V167.9z"/>
		<path class="st1" d="M252.56,168.4h-3.18v-20.69h3.18V168.4z M249.88,167.9h2.18v-19.69h-2.18V167.9z"/>
		<polygon class="st1" points="287.79,168.4 286.2,168.4 286.2,132.6 287.79,132.6 287.79,133.1 286.7,133.1 286.7,167.9 
			287.79,167.9 		"/>
		<rect x="286.45" y="135.6" class="st1" width="1.34" height="0.5"/>
		<rect x="274.18" y="141.92" class="st1" width="2.68" height="0.5"/>
		<rect x="276.85" y="140.67" class="st1" width="7.08" height="0.5"/>
		<path class="st1" d="M301.65,168.4h-3.18v-29.48h3.18V168.4z M298.97,167.9h2.18v-28.48h-2.18V167.9z"/>
		<path class="st1" d="M313.93,168.4h-3.18v-20.69h3.18V168.4z M311.25,167.9h2.18v-19.69h-2.18V167.9z"/>
		<rect x="301.4" y="150.24" class="st1" width="9.6" height="0.5"/>
		<rect x="313.68" y="150.24" class="st1" width="9.6" height="0.5"/>
		<rect x="325.95" y="150.24" class="st1" width="9.6" height="0.5"/>
		<polygon class="st1" points="355.29,150.74 338.22,150.74 338.22,150.24 354.08,150.24 345.01,141.17 301.4,141.17 301.4,140.67 
			345.21,140.67 		"/>
		
			<rect x="293.68" y="138.91" transform="matrix(0.7071 -0.7071 0.7071 0.7071 -16.9332 250.5096)" class="st1" width="0.5" height="13.57"/>
		
			<rect x="293.68" y="136.42" transform="matrix(0.7071 -0.7071 0.7071 0.7071 -15.1696 249.779)" class="st1" width="0.5" height="13.57"/>
		<rect x="343.82" y="173.2" class="st1" width="0.5" height="6.3"/>
		<rect x="340.06" y="173.2" class="st1" width="0.5" height="6.3"/>
		<rect x="336.31" y="173.2" class="st1" width="0.5" height="6.3"/>
		<rect x="332.56" y="173.2" class="st1" width="0.5" height="6.3"/>
		<rect x="328.81" y="173.2" class="st1" width="0.5" height="6.3"/>
		<rect x="325.06" y="173.2" class="st1" width="0.5" height="6.3"/>
		<rect x="321.31" y="173.2" class="st1" width="0.5" height="6.3"/>
		<rect x="317.55" y="173.2" class="st1" width="0.5" height="6.3"/>
		<rect x="313.8" y="173.2" class="st1" width="0.5" height="6.3"/>
		<rect x="310.05" y="173.2" class="st1" width="0.5" height="6.3"/>
		<rect x="306.3" y="173.2" class="st1" width="0.5" height="6.3"/>
		<rect x="302.55" y="173.2" class="st1" width="0.5" height="6.3"/>
		<rect x="298.79" y="173.2" class="st1" width="0.5" height="6.3"/>
		<rect x="295.04" y="173.2" class="st1" width="0.5" height="6.3"/>
		<rect x="291.29" y="173.2" class="st1" width="0.5" height="6.3"/>
		<rect x="344.37" y="154.37" class="st1" width="0.5" height="4.71"/>
		<rect x="341.17" y="154.37" class="st1" width="0.5" height="4.71"/>
		<rect x="332.1" y="154.37" class="st1" width="0.5" height="4.71"/>
		<rect x="328.9" y="154.37" class="st1" width="0.5" height="4.71"/>
		<rect x="320.05" y="154.37" class="st1" width="0.5" height="4.71"/>
		<rect x="316.85" y="154.37" class="st1" width="0.5" height="4.71"/>
		<rect x="307.55" y="154.37" class="st1" width="0.5" height="4.71"/>
		<rect x="304.35" y="154.37" class="st1" width="0.5" height="4.71"/>
		<rect x="295.27" y="154.37" class="st1" width="0.5" height="4.71"/>
		<rect x="292.08" y="154.37" class="st1" width="0.5" height="4.71"/>
		<rect x="292.08" y="147.48" class="st1" width="0.5" height="4.71"/>
		<g>
			<rect x="344.37" y="161.26" class="st1" width="0.5" height="4.71"/>
			<rect x="341.17" y="161.26" class="st1" width="0.5" height="4.71"/>
			<rect x="332.1" y="161.26" class="st1" width="0.5" height="4.71"/>
			<rect x="328.9" y="161.26" class="st1" width="0.5" height="4.71"/>
			<rect x="320.05" y="161.26" class="st1" width="0.5" height="4.71"/>
			<rect x="316.85" y="161.26" class="st1" width="0.5" height="4.71"/>
			<rect x="307.55" y="161.26" class="st1" width="0.5" height="4.71"/>
			<rect x="304.35" y="161.26" class="st1" width="0.5" height="4.71"/>
			<rect x="295.27" y="161.26" class="st1" width="0.5" height="4.71"/>
			<rect x="292.08" y="161.26" class="st1" width="0.5" height="4.71"/>
		</g>
		<rect x="288.88" y="153.87" class="st1" width="0.5" height="4.71"/>
		<rect x="347.57" y="150.49" class="st1" width="0.5" height="29.01"/>
		<polygon class="st1" points="348.07,173.45 287.79,173.45 287.79,172.95 347.57,172.95 347.57,168.4 287.79,168.4 287.79,167.9 
			348.07,167.9 		"/>
		<path class="st1" d="M338.47,168.4h-3.18v-20.69h3.18V168.4z M335.79,167.9h2.18v-19.69h-2.18V167.9z"/>
		<path class="st1" d="M326.2,168.4h-3.18v-20.69h3.18V168.4z M323.52,167.9h2.18v-19.69h-2.18V167.9z"/>
		<polygon class="st1" points="289.38,168.4 287.79,168.4 287.79,167.9 288.88,167.9 288.88,133.1 287.79,133.1 287.79,132.6 
			289.38,132.6 		"/>
		<rect x="287.79" y="135.6" class="st1" width="1.34" height="0.5"/>
		<rect x="298.72" y="141.92" class="st1" width="2.68" height="0.5"/>
		<rect x="291.64" y="140.67" class="st1" width="7.08" height="0.5"/>
		<rect x="12.9" y="179.25" class="st1" width="483.29" height="0.5"/>
		<path class="st1" d="M389.17,179.5h-0.5c0-43.33,2.81-102.26,16.17-137c8.03-20.88,15.99-23.07,16.33-23.16l2.78-0.01v0.5h-2.72
			c0.02,0-1.99,0.55-4.94,3.63c-2.75,2.86-6.89,8.54-11.04,19.39C391.96,77.55,389.17,136.32,389.17,179.5z"/>
		<path class="st1" d="M395.6,113.86l-0.5-0.04c1.94-22.72,5.02-41.99,9.16-57.28l0.48,0.13C400.61,71.93,397.53,91.17,395.6,113.86
			z"/>
		<rect x="420.98" y="19.59" class="st1" width="0.5" height="159.91"/>
		<rect x="404.51" y="56.35" class="st1" width="12.3" height="0.5"/>
		<rect x="403.2" y="61.45" class="st1" width="13.61" height="0.5"/>
		<rect x="402.03" y="66.55" class="st1" width="14.78" height="0.5"/>
		<rect x="400.85" y="71.65" class="st1" width="15.96" height="0.5"/>
		<rect x="400.02" y="76.75" class="st1" width="16.79" height="0.5"/>
		<rect x="399.15" y="81.85" class="st1" width="17.66" height="0.5"/>
		<rect x="398.4" y="86.95" class="st1" width="18.41" height="0.5"/>
		<rect x="395.77" y="117.94" class="st1" width="21.04" height="0.5"/>
		<rect x="395.77" y="123.04" class="st1" width="21.04" height="0.5"/>
		<rect x="395.77" y="128.14" class="st1" width="21.04" height="0.5"/>
		<rect x="395.77" y="133.24" class="st1" width="21.04" height="0.5"/>
		<rect x="395.77" y="138.34" class="st1" width="21.04" height="0.5"/>
		<rect x="395.77" y="143.45" class="st1" width="21.04" height="0.5"/>
		<rect x="395.77" y="148.55" class="st1" width="21.04" height="0.5"/>
		<path class="st1" d="M459.22,179.5h-0.5c0-43.19-2.79-101.95-16.07-136.65c-4.15-10.84-8.3-16.53-11.04-19.39
			c-2.97-3.09-4.98-3.63-5-3.64l-2.65,0.01v-0.5h2.72c0.4,0.09,8.36,2.29,16.39,23.16C456.41,77.24,459.22,136.18,459.22,179.5z"/>
		<path class="st1" d="M452.29,113.86c-1.94-22.69-5.01-41.93-9.15-57.19l0.48-0.13c4.14,15.29,7.23,34.56,9.16,57.28L452.29,113.86
			z"/>
		<rect x="426.41" y="19.59" class="st1" width="0.5" height="159.91"/>
		<rect x="431.08" y="56.35" class="st1" width="12.3" height="0.5"/>
		<rect x="431.08" y="61.45" class="st1" width="13.61" height="0.5"/>
		<rect x="431.08" y="66.55" class="st1" width="14.78" height="0.5"/>
		<rect x="431.08" y="71.65" class="st1" width="15.96" height="0.5"/>
		<rect x="431.08" y="76.75" class="st1" width="16.79" height="0.5"/>
		<rect x="431.08" y="81.85" class="st1" width="17.66" height="0.5"/>
		<rect x="431.08" y="86.95" class="st1" width="18.41" height="0.5"/>
		<rect x="431.08" y="117.94" class="st1" width="21.04" height="0.5"/>
		<rect x="431.08" y="123.04" class="st1" width="21.04" height="0.5"/>
		<rect x="431.08" y="128.14" class="st1" width="21.04" height="0.5"/>
		<rect x="431.08" y="133.24" class="st1" width="21.04" height="0.5"/>
		<rect x="431.08" y="138.34" class="st1" width="21.04" height="0.5"/>
		<rect x="431.08" y="143.45" class="st1" width="21.04" height="0.5"/>
		<rect x="431.08" y="148.55" class="st1" width="21.04" height="0.5"/>
		<rect x="423.69" y="24.08" class="st1" width="0.5" height="2.79"/>
		<rect x="423.69" y="30.14" class="st1" width="0.5" height="2.79"/>
		<rect x="423.69" y="44.61" class="st1" width="0.5" height="5.83"/>
	</g>
</g>
</svg>
